<svg width="715" height="727" viewBox="0 0 715 727" fill="none" xmlns="http://www.w3.org/2000/svg">
<path d="M0.00154285 449.931C36.746 451.671 69.1822 442.067 90.8396 413.702C94.498 408.908 99.2417 402.677 103.941 396.503C186.471 288.081 249.464 205.327 353.095 191.39C430.069 181.039 553.069 306.336 618.89 381.089L619.554 380.364C553.593 305.483 430.325 180.012 352.964 190.414C248.931 204.403 185.832 287.3 103.161 395.907C99.2374 401.062 95.2499 406.3 90.056 413.103C68.7683 440.986 36.9343 450.579 0.815056 449.039L-3.28143e-05 449.929L0.00154285 449.931Z" fill="url(#paint0_linear_788_539)"/>
<path d="M8.19145 440.985C51.6437 446.63 90.6824 438.78 115.529 406.236C119.156 401.486 123.928 395.217 128.63 389.037C211.161 280.615 274.153 197.858 377.786 183.923C451.452 174.019 567.274 288.353 634.787 363.724L635.45 363.001C567.793 287.504 451.696 172.993 377.655 182.95C273.622 196.939 210.522 279.837 127.853 388.444C123.934 393.592 119.975 398.792 114.75 405.638C90.2644 437.71 51.8279 445.582 8.9635 440.144L8.19302 440.986L8.19145 440.985Z" fill="url(#paint1_linear_788_539)"/>
<path d="M17.3608 430.969C66.946 440.668 112.453 435.148 140.23 398.766C143.873 393.993 148.631 387.746 153.332 381.568C235.862 273.146 298.854 190.389 402.487 176.453C473.017 166.971 582.192 271.378 650.616 346.434L651.275 345.714C582.706 270.532 473.252 165.946 402.356 175.48C298.324 189.469 235.223 272.367 152.553 380.973C148.632 386.125 144.659 391.344 139.45 398.167C112.033 434.079 67.124 439.651 18.0938 430.168L17.3608 430.969Z" fill="url(#paint2_linear_788_539)"/>
<path d="M25.9684 421.566C80.5255 434.86 131.667 431.772 161.86 392.226C165.491 387.469 170.259 381.205 174.96 375.029C257.49 266.607 320.482 183.85 424.115 169.915C492.01 160.784 595.717 257.195 664.409 331.367L665.067 330.648C596.225 256.35 492.237 159.761 423.984 168.939C319.952 182.928 256.851 265.826 174.179 374.433C170.259 379.585 166.297 384.789 161.076 391.627C131.244 430.702 80.7059 433.863 26.6799 420.789L25.9684 421.566Z" fill="url(#paint3_linear_788_539)"/>
<path d="M34.7186 412.008C93.7713 428.784 150.384 428.372 182.818 385.887C186.473 381.102 191.222 374.861 195.92 368.689C278.45 260.267 341.443 177.51 445.076 163.575C510.494 154.78 609.158 243.965 677.716 316.832L678.373 316.115C609.659 243.12 510.713 153.757 444.944 162.602C340.912 176.591 277.813 259.487 195.141 368.095C191.216 373.251 187.236 378.478 182.037 385.29C149.966 427.298 93.9613 427.799 35.42 411.242L34.7186 412.008Z" fill="url(#paint4_linear_788_539)"/>
<path d="M44.0637 401.801C107.42 422.126 169.694 424.777 204.356 379.376C208.01 374.59 212.759 368.349 217.457 362.177C299.988 253.755 362.98 170.998 466.613 157.063C525.483 149.146 611.281 220.588 677.834 288.074L675.037 283.874C608.823 217.306 524.662 148.267 466.482 156.09C362.449 170.079 299.349 252.977 216.678 361.583C212.754 366.74 208.773 371.967 203.575 378.777C169.28 423.695 107.621 421.151 44.7564 401.044L44.0637 401.801Z" fill="url(#paint5_linear_788_539)"/>
<path d="M53.1623 391.862C120.305 415.492 187.997 421.307 224.71 373.22C228.347 368.457 233.11 362.197 237.811 356.022C320.341 247.6 383.334 164.843 486.967 150.908C528.014 145.389 582.159 178.458 633.742 221.859L631.902 219.096C580.853 176.554 527.497 144.464 486.835 149.932C382.803 163.921 319.702 246.818 237.032 355.425C233.11 360.578 229.143 365.788 223.929 372.619C187.586 420.219 120.519 414.525 53.8491 391.109L53.1607 391.86L53.1623 391.862Z" fill="url(#paint6_linear_788_539)"/>
<path d="M63.2807 380.809C134.218 407.945 207.864 417.49 246.753 366.554C250.408 361.768 255.157 355.528 259.855 349.355C342.385 240.934 405.377 158.176 509.01 144.241C536.125 140.597 568.959 153.796 602.992 175.682L601.727 173.781C568.124 152.444 535.731 139.658 508.878 143.269C404.845 157.259 341.745 240.156 259.075 348.763C255.15 353.919 251.171 359.148 245.971 365.956C207.46 416.398 134.446 406.991 63.9619 380.065L63.2807 380.809Z" fill="url(#paint7_linear_788_539)"/>
<defs>
<linearGradient id="paint0_linear_788_539" x1="147.403" y1="336.348" x2="534.471" y2="288.102" gradientUnits="userSpaceOnUse">
<stop stop-color="#023436"/>
<stop offset="0.544795" stop-color="#00F1B5" stop-opacity="0.28"/>
<stop offset="1" stop-color="#023436"/>
</linearGradient>
<linearGradient id="paint1_linear_788_539" x1="158.199" y1="324.558" x2="550.408" y2="279.769" gradientUnits="userSpaceOnUse">
<stop stop-color="#023436"/>
<stop offset="0.544795" stop-color="#00F1B5" stop-opacity="0.28"/>
<stop offset="1" stop-color="#023436"/>
</linearGradient>
<linearGradient id="paint2_linear_788_539" x1="169.6" y1="312.104" x2="566.084" y2="270.309" gradientUnits="userSpaceOnUse">
<stop stop-color="#023436"/>
<stop offset="0.544795" stop-color="#00F1B5" stop-opacity="0.28"/>
<stop offset="1" stop-color="#023436"/>
</linearGradient>
<linearGradient id="paint3_linear_788_539" x1="179.939" y1="300.81" x2="579.662" y2="261.356" gradientUnits="userSpaceOnUse">
<stop stop-color="#023436"/>
<stop offset="0.544795" stop-color="#00F1B5" stop-opacity="0.28"/>
<stop offset="1" stop-color="#023436"/>
</linearGradient>
<linearGradient id="paint4_linear_788_539" x1="190.211" y1="289.59" x2="592.721" y2="252.206" gradientUnits="userSpaceOnUse">
<stop stop-color="#023436"/>
<stop offset="0.544795" stop-color="#00F1B5" stop-opacity="0.28"/>
<stop offset="1" stop-color="#023436"/>
</linearGradient>
<linearGradient id="paint5_linear_788_539" x1="199.87" y1="276.803" x2="596.599" y2="251.716" gradientUnits="userSpaceOnUse">
<stop stop-color="#023436"/>
<stop offset="0.544795" stop-color="#00F1B5" stop-opacity="0.28"/>
<stop offset="1" stop-color="#023436"/>
</linearGradient>
<linearGradient id="paint6_linear_788_539" x1="205.548" y1="261.664" x2="559.481" y2="279.468" gradientUnits="userSpaceOnUse">
<stop stop-color="#023436"/>
<stop offset="0.544795" stop-color="#00F1B5" stop-opacity="0.28"/>
<stop offset="1" stop-color="#023436"/>
</linearGradient>
<linearGradient id="paint7_linear_788_539" x1="212.062" y1="248.32" x2="522.873" y2="291.803" gradientUnits="userSpaceOnUse">
<stop stop-color="#023436"/>
<stop offset="0.544795" stop-color="#00F1B5" stop-opacity="0.28"/>
<stop offset="1" stop-color="#023436"/>
</linearGradient>
</defs>
</svg>
