<svg width="50" height="50" viewBox="0 0 50 50" fill="none" xmlns="http://www.w3.org/2000/svg">
<g clip-path="url(#clip0_484_567)">
<path d="M40.0001 25C45.2001 26.6 45.5 30.5 45 32.5C45.3333 32.5 46.1 33 46.5 33C50 32.5 48.5 31.5 49 29C49.4 27 47.8333 24.1667 47 23L40.0001 20.5V22.5C37.8334 22.6667 34.8001 23.4 40.0001 25Z" fill="#00D999"/>
<path d="M10.0639 25C4.8639 26.6 4.56399 30.5 5.06399 32.5C4.73069 32.5 3.96399 33 3.56399 33C0.0639896 32.5 1.56399 31.5 1.06399 29C0.66399 27 2.23066 24.1667 3.06399 23L10.0639 20.5V22.5C10.0639 24 15.2639 23.4 10.0639 25Z" fill="#00D999"/>
<path d="M27 45H23V49H27V45Z" fill="#00D999"/>
<path d="M41.1053 20.0517C42.2023 19.4541 43.1309 18.5897 43.8056 17.5385C44.4802 16.4872 44.8791 15.2828 44.9653 14.0367C45.4608 13.8686 45.8913 13.5498 46.1965 13.1248C46.5017 12.6997 46.6662 12.1899 46.667 11.6667V8.33333C46.6646 6.12394 45.7858 4.00573 44.2235 2.44346C42.6613 0.881179 40.543 0.00242633 38.3337 0L36.667 0C34.4576 0.00242633 32.3394 0.881179 30.7771 2.44346C29.2148 4.00573 28.3361 6.12394 28.3337 8.33333V11.6667C28.3345 12.1899 28.499 12.6997 28.8041 13.1248C29.1093 13.5498 29.5398 13.8686 30.0353 14.0367C30.1214 15.2826 30.52 16.4867 31.1943 17.5378C31.8687 18.589 32.7971 19.4532 33.8937 20.0508C33.2814 20.1007 32.6735 20.1939 32.0745 20.33C31.2954 19.4416 30.3357 18.7296 29.2595 18.2416C28.1833 17.7535 27.0153 17.5007 25.8337 17.5H24.167C23.3921 17.5019 22.6213 17.6121 21.877 17.8275C21.0851 16.1682 20.7261 14.3354 20.8337 12.5V9.16667C20.8337 6.73552 19.8679 4.40394 18.1488 2.68485C16.4297 0.965771 14.0981 0 11.667 0C9.23584 0 6.90426 0.965771 5.18518 2.68485C3.4661 4.40394 2.50032 6.73552 2.50032 9.16667V12.5C2.50032 16.6133 1.36532 18.2342 0.695324 18.8333C0.285607 19.2088 0.0374779 19.7286 0.00313043 20.2833C-0.031217 20.8379 0.150894 21.3843 0.511158 21.8075C1.10393 22.3951 1.82058 22.8426 2.60866 23.1175C1.12699 24.4692 0.000324405 26.6017 0.000324405 30V30.8333C0.000324405 31.4964 0.263716 32.1323 0.732557 32.6011C1.2014 33.0699 1.83728 33.3333 2.50032 33.3333H17.917C18.1819 34.2353 18.6271 35.0743 19.2255 35.7993C19.824 36.5244 20.5632 37.1205 21.3987 37.5517C17.0695 37.9167 12.5003 40.435 12.5003 46.6667V47.5C12.5003 48.163 12.7637 48.7989 13.2326 49.2678C13.7014 49.7366 14.3373 50 15.0003 50H35.0003C35.6634 50 36.2992 49.7366 36.7681 49.2678C37.2369 48.7989 37.5003 48.163 37.5003 47.5V46.6667C37.5003 40.435 32.9312 37.9125 28.6053 37.5517C29.4401 37.1201 30.1788 36.5239 30.7766 35.7988C31.3745 35.0738 31.8191 34.2351 32.0837 33.3333H47.5003C48.1634 33.3333 48.7992 33.0699 49.2681 32.6011C49.7369 32.1323 50.0003 31.4964 50.0003 30.8333V29.1667C50.0003 22.935 45.4312 20.4167 41.1053 20.0517ZM30.0003 8.33333C30.0023 6.56583 30.7053 4.87129 31.9551 3.62148C33.2049 2.37167 34.8995 1.66865 36.667 1.66667H38.3337C40.1012 1.66865 41.7957 2.37167 43.0455 3.62148C44.2953 4.87129 44.9983 6.56583 45.0003 8.33333V9.315C44.9728 9.305 44.947 9.29083 44.917 9.2825C44.7591 8.60341 44.3864 7.99336 43.8542 7.54298C43.322 7.09259 42.6587 6.82589 41.9628 6.7825C40.5286 6.75028 39.1536 6.20442 38.0878 5.24417C37.9315 5.08794 37.7196 5.00018 37.4987 5.00018C37.2777 5.00018 37.0658 5.08794 36.9095 5.24417C35.8439 6.20474 34.4688 6.75065 33.0345 6.7825C32.3387 6.82603 31.6755 7.09277 31.1433 7.54314C30.6111 7.9935 30.2383 8.60347 30.0803 9.2825C30.052 9.29083 30.0262 9.305 29.997 9.315L30.0003 8.33333ZM31.667 13.3333C31.667 13.1123 31.5792 12.9004 31.4229 12.7441C31.2666 12.5878 31.0547 12.5 30.8337 12.5C30.6126 12.5 30.4007 12.4122 30.2444 12.2559C30.0881 12.0996 30.0003 11.8877 30.0003 11.6667C30.0003 11.4457 30.0881 11.2337 30.2444 11.0774C30.4007 10.9211 30.6126 10.8333 30.8337 10.8333C31.0547 10.8333 31.2666 10.7455 31.4229 10.5893C31.5792 10.433 31.667 10.221 31.667 10C31.6693 9.60227 31.8228 9.22031 32.0964 8.93167C32.3701 8.64302 32.7433 8.46932 33.1403 8.44583C34.7116 8.39169 36.2305 7.86711 37.5003 6.94C38.7701 7.86711 40.289 8.39169 41.8603 8.44583C42.2574 8.46932 42.6306 8.64302 42.9042 8.93167C43.1778 9.22031 43.3314 9.60227 43.3337 10C43.3337 10.221 43.4214 10.433 43.5777 10.5893C43.734 10.7455 43.946 10.8333 44.167 10.8333C44.388 10.8333 44.6 10.9211 44.7562 11.0774C44.9125 11.2337 45.0003 11.4457 45.0003 11.6667C45.0003 11.8877 44.9125 12.0996 44.7562 12.2559C44.6 12.4122 44.388 12.5 44.167 12.5C43.946 12.5 43.734 12.5878 43.5777 12.7441C43.4214 12.9004 43.3337 13.1123 43.3337 13.3333C43.3337 13.5717 43.2362 19.1667 37.5003 19.1667C31.7645 19.1667 31.667 13.5692 31.667 13.3333ZM39.167 20.6842V20.8333C39.167 21.2754 38.9914 21.6993 38.6788 22.0118C38.3663 22.3244 37.9423 22.5 37.5003 22.5C37.0583 22.5 36.6344 22.3244 36.3218 22.0118C36.0092 21.6993 35.8337 21.2754 35.8337 20.8333V20.6817C36.9356 20.8839 38.0651 20.8839 39.167 20.6817V20.6842ZM24.167 19.1667H25.8337C27.6012 19.1687 29.2957 19.8717 30.5455 21.1215C31.7953 22.3713 32.4983 24.0658 32.5003 25.8333V26.815C32.4728 26.805 32.447 26.7908 32.417 26.7825C32.2591 26.1033 31.8862 25.4931 31.3538 25.0427C30.8215 24.5923 30.158 24.3257 29.462 24.2825C28.028 24.2506 26.6531 23.7047 25.5878 22.7442C25.4315 22.5879 25.2196 22.5002 24.9987 22.5002C24.7777 22.5002 24.5658 22.5879 24.4095 22.7442C23.3443 23.7048 21.9694 24.2507 20.5353 24.2825C19.8394 24.3259 19.176 24.5925 18.6436 25.0429C18.1113 25.4933 17.7384 26.1033 17.5803 26.7825C17.552 26.7908 17.5262 26.805 17.497 26.815V25.8333C17.499 24.0653 18.2024 22.3702 19.453 21.1203C20.7035 19.8704 22.3989 19.1678 24.167 19.1667ZM20.322 18.4475C19.0731 19.1004 18.0087 20.0573 17.227 21.23C16.499 21.0337 15.7529 20.9114 15.0003 20.865V20.4483H14.9687C16.7011 18.9439 18.0554 17.0529 18.922 14.9283C19.0501 14.8967 19.1755 14.8549 19.297 14.8033C19.4167 16.0698 19.7639 17.3043 20.322 18.4475ZM4.16699 9.16667C4.16699 7.17754 4.95717 5.26989 6.36369 3.86337C7.77021 2.45684 9.67787 1.66667 11.667 1.66667C13.6561 1.66667 15.5638 2.45684 16.9703 3.86337C18.3768 5.26989 19.167 7.17754 19.167 9.16667V10.1483C19.1437 10.14 19.122 10.1275 19.0978 10.12C18.7113 8.71247 17.8244 7.49434 16.6037 6.69417C16.1891 6.39392 15.7009 6.21159 15.1911 6.16654C14.6812 6.1215 14.1686 6.21542 13.7078 6.43833C11.7952 7.18607 9.76142 7.57615 7.70782 7.58917L7.20782 7.61833C6.51194 7.66034 5.8482 7.92586 5.31533 8.37539C4.78247 8.82493 4.40895 9.43446 4.25032 10.1133C4.22116 10.1225 4.19699 10.14 4.16699 10.15V9.16667ZM4.42282 11.9058C4.49808 11.8292 4.588 11.7685 4.68722 11.7274C4.78644 11.6864 4.89293 11.6657 5.00032 11.6667C5.22134 11.6667 5.4333 11.5789 5.58958 11.4226C5.74586 11.2663 5.83366 11.0543 5.83366 10.8333C5.83607 10.4348 5.99061 10.0522 6.2657 9.76377C6.54079 9.47536 6.91566 9.3029 7.31366 9.28167L7.79782 9.25333C10.0665 9.23464 12.3116 8.79116 14.417 7.94583C14.5847 7.86703 14.7675 7.82579 14.9528 7.825C15.1907 7.82312 15.4229 7.89761 15.6153 8.0375C16.3195 8.55583 17.5003 9.6075 17.5003 10.8333C17.5003 11.0543 17.5881 11.2663 17.7444 11.4226C17.9007 11.5789 18.1126 11.6667 18.3337 11.6667C18.5547 11.6667 18.7666 11.7545 18.9229 11.9107C19.0792 12.067 19.167 12.279 19.167 12.5C19.167 12.721 19.0792 12.933 18.9229 13.0893C18.7666 13.2455 18.5547 13.3333 18.3337 13.3333C18.164 13.3332 17.9984 13.3848 17.8588 13.4813C17.7193 13.5778 17.6125 13.7145 17.5528 13.8733C16.917 15.5775 14.6112 20 11.667 20C8.72282 20 6.42199 15.5775 5.78116 13.8733C5.72144 13.7145 5.61469 13.5778 5.47516 13.4813C5.33563 13.3848 5.16997 13.3332 5.00032 13.3333C4.77931 13.3333 4.56735 13.2455 4.41107 13.0893C4.25479 12.933 4.16699 12.721 4.16699 12.5C4.16677 12.3887 4.18936 12.2786 4.23336 12.1764C4.27736 12.0742 4.34184 11.9821 4.42282 11.9058ZM13.3337 21.3558V21.6667C13.3487 21.8894 13.3158 22.1128 13.2374 22.3218C13.1589 22.5308 13.0367 22.7206 12.8788 22.8785C12.721 23.0364 12.5311 23.1586 12.3221 23.2371C12.1131 23.3155 11.8897 23.3483 11.667 23.3333C11.4442 23.3483 11.2209 23.3155 11.0118 23.2371C10.8028 23.1586 10.613 23.0364 10.4552 22.8785C10.2973 22.7206 10.175 22.5308 10.0966 22.3218C10.0181 22.1128 9.98532 21.8894 10.0003 21.6667V21.3558C11.0728 21.7703 12.2612 21.7703 13.3337 21.3558ZM1.77532 20.7158C1.7021 20.6253 1.66384 20.5114 1.66751 20.395C1.67118 20.2786 1.71654 20.1674 1.79532 20.0817C2.67366 19.3017 3.68866 17.7742 4.03949 14.8058C4.16017 14.857 4.28473 14.8986 4.41199 14.93C5.27858 17.0546 6.63284 18.9455 8.36532 20.45H8.33366V20.8667C6.94011 20.9566 5.57773 21.319 4.32366 21.9333C3.38578 21.7469 2.50961 21.3283 1.77532 20.7158ZM2.50032 31.6667C2.27931 31.6667 2.06735 31.5789 1.91107 31.4226C1.75479 31.2663 1.66699 31.0543 1.66699 30.8333V30C1.66699 24.0167 5.61366 22.7042 8.42949 22.5267C8.5717 23.1608 8.9092 23.7344 9.39449 24.1667C10.0243 24.7135 10.833 25.0101 11.667 25C12.4075 25.0212 13.1327 24.7869 13.7209 24.3365C14.3091 23.8861 14.7243 23.2471 14.897 22.5267C15.4139 22.5598 15.9275 22.6337 16.4328 22.7475C16.038 23.7284 15.8346 24.7759 15.8337 25.8333V29.1667C15.8345 29.6899 15.999 30.1997 16.3041 30.6248C16.6093 31.0498 17.0398 31.3686 17.5353 31.5367C17.5353 31.5783 17.547 31.62 17.552 31.6667H2.50032ZM22.0895 39.1742L23.822 41.4842L22.4478 42.465L20.8553 39.2858C21.2646 39.2278 21.6765 39.1905 22.0895 39.1742ZM25.0003 40.2775L23.4403 38.1983C24.4725 38.3783 25.5281 38.3783 26.5603 38.1983L25.0003 40.2775ZM26.1778 43.5317L26.0178 44.1667H23.9828L23.8228 43.5308L25.0003 42.6908L26.1778 43.5317ZM21.817 48.3333H15.0003C14.7793 48.3333 14.5673 48.2455 14.4111 48.0893C14.2548 47.933 14.167 47.721 14.167 47.5V46.6667C14.167 42.2108 16.7812 40.3917 19.1753 39.6558L20.9962 43.2892C21.0997 43.4966 21.2476 43.6787 21.4293 43.8227C21.6111 43.9667 21.8222 44.0691 22.0478 44.1225C22.1176 44.1362 22.1884 44.1446 22.2595 44.1475L22.4795 45.0217L21.817 48.3333ZM23.517 48.3333L24.017 45.8333H25.9837L26.4837 48.3333H23.517ZM35.8337 46.6667V47.5C35.8337 47.721 35.7459 47.933 35.5896 48.0893C35.4333 48.2455 35.2213 48.3333 35.0003 48.3333H28.1837L27.517 45.0217L27.737 44.15C27.8081 44.1458 27.8788 44.1366 27.9487 44.1225C28.1743 44.0691 28.3854 43.9667 28.5671 43.8227C28.7489 43.6787 28.8967 43.4966 29.0003 43.2892L30.8212 39.655C33.2195 40.3917 35.8337 42.2108 35.8337 46.6667ZM29.1453 39.2858L27.5528 42.465L26.1787 41.4842L27.9112 39.1742C28.3242 39.1905 28.7361 39.2278 29.1453 39.2858ZM31.667 30C31.446 30 31.234 30.0878 31.0777 30.2441C30.9215 30.4004 30.8337 30.6123 30.8337 30.8333C30.8337 31.0717 30.7362 36.6667 25.0003 36.6667C19.2645 36.6667 19.167 31.0692 19.167 30.8333C19.167 30.6123 19.0792 30.4004 18.9229 30.2441C18.7666 30.0878 18.5547 30 18.3337 30C18.1126 30 17.9007 29.9122 17.7444 29.7559C17.5881 29.5996 17.5003 29.3877 17.5003 29.1667C17.5003 28.9457 17.5881 28.7337 17.7444 28.5774C17.9007 28.4211 18.1126 28.3333 18.3337 28.3333C18.5547 28.3333 18.7666 28.2455 18.9229 28.0893C19.0792 27.933 19.167 27.721 19.167 27.5C19.1693 27.1023 19.3228 26.7203 19.5964 26.4317C19.8701 26.143 20.2433 25.9693 20.6403 25.9458C22.2117 25.8922 23.7308 25.3676 25.0003 24.44C26.27 25.3674 27.7889 25.892 29.3603 25.9458C29.7574 25.9693 30.1306 26.143 30.4042 26.4317C30.6778 26.7203 30.8314 27.1023 30.8337 27.5C30.8337 27.721 30.9215 27.933 31.0777 28.0893C31.234 28.2455 31.446 28.3333 31.667 28.3333C31.888 28.3333 32.1 28.4211 32.2562 28.5774C32.4125 28.7337 32.5003 28.9457 32.5003 29.1667C32.5003 29.3877 32.4125 29.5996 32.2562 29.7559C32.1 29.9122 31.888 30 31.667 30ZM48.3337 30.8333C48.3337 31.0543 48.2459 31.2663 48.0896 31.4226C47.9333 31.5789 47.7213 31.6667 47.5003 31.6667H32.4487C32.4537 31.6242 32.4612 31.5783 32.4653 31.5367C32.9608 31.3686 33.3913 31.0498 33.6965 30.6248C34.0017 30.1997 34.1662 29.6899 34.167 29.1667V25.8333C34.1678 24.4299 33.8122 23.0493 33.1337 21.8208C33.5028 21.7617 33.8837 21.715 34.262 21.6908C34.4037 22.3261 34.7416 22.9007 35.2278 23.3333C35.8576 23.8802 36.6663 24.1767 37.5003 24.1667C38.2409 24.1878 38.9663 23.9534 39.5544 23.5028C40.1426 23.0523 40.5578 22.4131 40.7303 21.6925C43.1937 21.8458 48.3337 22.9167 48.3337 29.1667V30.8333Z" fill="#003D2B"/>
</g>
<defs>
<clipPath id="clip0_484_567">
<rect width="50" height="50" fill="white"/>
</clipPath>
</defs>
</svg>
