<svg width="56" height="43" viewBox="0 0 56 43" fill="none" xmlns="http://www.w3.org/2000/svg">
<path d="M29 24.8364C38.6 17.6364 38.6667 6.16972 37.5 1.33639C37 0.336385 35 1.83639 34.5 2.33639C34 2.83639 34 3.33638 34 9.83638C34 15.0364 29.3333 18.6697 27 19.8364C27.5 21.6697 28.6 25.2364 29 24.8364Z" fill="#00D999"/>
<circle cx="15.5" cy="27.5" r="13.5" fill="#00D999"/>
<path d="M15.0954 42.455C18.6567 42.4555 22.0965 41.1605 24.7733 38.8115C25.5797 38.8918 26.3468 39.1993 26.9854 39.6982L28.7533 41.1232C29.8382 41.9798 31.1786 42.4487 32.5609 42.455H48.1175C49.0804 42.464 50.0112 42.1095 50.7242 41.4623C51.4372 40.8151 51.8798 39.9228 51.9638 38.9636C52.0042 38.2353 51.8261 37.5115 51.4522 36.8851C52.3134 36.7777 53.1108 36.375 53.7083 35.7456C54.3058 35.1161 54.6665 34.299 54.7289 33.4333C54.7825 32.4859 54.4648 31.5548 53.8432 30.8378C54.3201 30.5614 54.728 30.1802 55.036 29.723C55.344 29.2659 55.544 28.7447 55.621 28.1988C55.6979 27.653 55.6498 27.0968 55.4803 26.5723C55.3107 26.0477 55.0242 25.5686 54.6423 25.1711C54.5667 25.0909 54.4874 25.0144 54.4054 24.9425C54.4874 24.8706 54.5667 24.7941 54.6423 24.7139C54.989 24.3516 55.2574 23.9216 55.4307 23.451C55.6041 22.9803 55.6786 22.479 55.6497 21.9783C55.5755 21.0156 55.1356 20.1179 54.4204 19.4693C53.7051 18.8207 52.7687 18.4705 51.8034 18.4906H42.5504C42.3754 18.4909 42.2024 18.4534 42.0432 18.3805C41.8841 18.3076 41.7427 18.2011 41.6286 18.0684C41.5155 17.9384 41.4322 17.7853 41.3844 17.6197C41.3367 17.4541 41.3257 17.2801 41.3521 17.1098C41.6596 15.1268 41.8177 13.1236 41.825 11.1169C41.7974 8.7466 41.6349 6.37981 41.3383 4.028C41.2129 2.87525 40.649 1.81488 39.7632 1.06652C38.8775 0.318158 37.7378 -0.0608582 36.5803 0.00796939C35.4228 0.0767969 34.3361 0.588195 33.5453 1.43625C32.7545 2.2843 32.3202 3.40402 32.3323 4.56352C32.3323 4.73607 32.3431 4.90845 32.3645 5.07967C32.5229 6.47204 32.6042 7.87211 32.6079 9.27345C32.6079 10.9952 31.6862 13.1907 29.9497 15.6231C29.0651 16.8554 27.795 17.7577 26.3402 18.1873C24.7402 16.2975 22.6898 14.8412 20.3784 13.9528C18.0671 13.0644 15.5691 12.7725 13.1152 13.1042C10.6613 13.4358 8.33045 14.3802 6.3378 15.8502C4.34515 17.3203 2.7549 19.2686 1.71383 21.5153C0.672761 23.7621 0.214415 26.2349 0.381094 28.7055C0.547774 31.1761 1.33411 33.5649 2.66753 35.6515C4.00094 37.738 5.83847 39.4551 8.01052 40.6442C10.1826 41.8332 12.6192 42.456 15.0954 42.455ZM31.4484 16.6951C33.4374 13.9087 34.4513 11.4127 34.4513 9.27345C34.4471 7.79817 34.3613 6.32425 34.1941 4.85846C34.1812 4.76068 34.1748 4.66215 34.1748 4.56352C34.1615 3.8734 34.4157 3.20491 34.8842 2.69799C35.3527 2.19107 35.9991 1.88504 36.6881 1.84394C37.3771 1.80285 38.0553 2.0299 38.5807 2.47754C39.1061 2.92519 39.438 3.55873 39.5069 4.24553C39.7954 6.52511 39.9538 8.81927 39.9816 11.1169C39.9742 13.0303 39.8235 14.9405 39.5308 16.8315C39.4658 17.2657 39.4953 17.7087 39.6173 18.1305C39.7392 18.5522 39.9507 18.9427 40.2374 19.2752C40.524 19.6077 40.8791 19.8744 41.2782 20.0572C41.6774 20.2399 42.1113 20.3343 42.5504 20.334H51.8034C52.2953 20.3201 52.7745 20.4918 53.1457 20.8148C53.5169 21.1379 53.753 21.5887 53.8072 22.0779C53.8207 22.3282 53.7831 22.5786 53.6965 22.8139C53.61 23.0492 53.4763 23.2643 53.3038 23.4462C53.1312 23.628 52.9234 23.7728 52.693 23.8716C52.4626 23.9704 52.2145 24.0212 51.9638 24.0208C51.7193 24.0208 51.4849 24.1179 51.312 24.2908C51.1392 24.4636 51.0421 24.6981 51.0421 24.9425C51.0421 25.187 51.1392 25.4214 51.312 25.5943C51.4849 25.7671 51.7193 25.8642 51.9638 25.8642C52.2138 25.8639 52.4613 25.9145 52.6912 26.0128C52.9211 26.1112 53.1285 26.2553 53.301 26.4363C53.4734 26.6174 53.6072 26.8316 53.6942 27.066C53.7813 27.3005 53.8197 27.5501 53.8072 27.7998C53.7543 28.2901 53.5188 28.7425 53.1475 29.067C52.7762 29.3915 52.2964 29.5643 51.8034 29.5511H51.0421C50.7976 29.5511 50.5632 29.6482 50.3903 29.821C50.2175 29.9939 50.1204 30.2283 50.1204 30.4728C50.1204 30.7172 50.2175 30.9517 50.3903 31.1245C50.5632 31.2974 50.7976 31.3945 51.0421 31.3945C51.2921 31.3942 51.5396 31.4447 51.7695 31.5431C51.9994 31.6414 52.2068 31.7855 52.3793 31.9666C52.5517 32.1477 52.6855 32.3619 52.7725 32.5963C52.8596 32.8307 52.898 33.0804 52.8855 33.3301C52.8326 33.8204 52.5971 34.2728 52.2258 34.5973C51.8545 34.9218 51.3746 35.0946 50.8817 35.0813H48.2769C48.0325 35.0813 47.798 35.1784 47.6252 35.3513C47.4523 35.5242 47.3552 35.7586 47.3552 36.0031C47.3552 36.2475 47.4523 36.4819 47.6252 36.6548C47.798 36.8277 48.0325 36.9248 48.2769 36.9248C48.527 36.9244 48.7745 36.975 49.0044 37.0734C49.2342 37.1717 49.4417 37.3158 49.6141 37.4969C49.7866 37.6779 49.9204 37.8922 50.0074 38.1266C50.0944 38.361 50.1329 38.6106 50.1204 38.8604C50.0675 39.3505 49.8321 39.8027 49.461 40.1272C49.0899 40.4517 48.6103 40.6246 48.1175 40.6116H32.5609C31.5933 40.6085 30.6548 40.2811 29.8953 39.6816L28.1274 38.2566C27.5785 37.8272 26.9608 37.4938 26.3006 37.2704C28.3648 34.8681 29.5957 31.8622 29.8094 28.7021C30.0231 25.542 29.2079 22.3977 27.4859 19.7395C29.0775 19.1366 30.4558 18.0776 31.4484 16.6951ZM15.0954 14.8037C17.6475 14.8037 20.1424 15.5605 22.2644 16.9784C24.3865 18.3963 26.0404 20.4116 27.0171 22.7695C27.9937 25.1274 28.2493 27.722 27.7514 30.2251C27.2535 32.7282 26.0245 35.0275 24.2198 36.8321C22.4152 38.6368 20.1159 39.8658 17.6128 40.3637C15.1097 40.8616 12.5151 40.606 10.1573 39.6293C7.79936 38.6527 5.78404 36.9987 4.36614 34.8767C2.94824 32.7547 2.19143 30.2598 2.19143 27.7077C2.19509 24.2864 3.55579 21.0064 5.97495 18.5872C8.39412 16.1681 11.6742 14.8074 15.0954 14.8037Z" fill="#003D2B"/>
<path d="M11.6782 33.8895C11.851 34.0624 12.0854 34.1595 12.3298 34.1596H12.3953C12.5271 34.1499 12.6554 34.112 12.7714 34.0484C12.8873 33.9848 12.9882 33.8969 13.0672 33.7909L21.3626 22.7304C21.4352 22.6335 21.488 22.5233 21.5181 22.4061C21.5481 22.2888 21.5548 22.1668 21.5377 22.047C21.5205 21.9272 21.48 21.8119 21.4183 21.7077C21.3566 21.6036 21.2751 21.5126 21.1782 21.44C21.0814 21.3673 20.9712 21.3145 20.854 21.2845C20.7367 21.2544 20.6147 21.2478 20.4949 21.2649C20.375 21.282 20.2598 21.3225 20.1556 21.3842C20.0514 21.4459 19.9605 21.5275 19.8878 21.6243L12.2303 31.835L10.2163 29.8211C10.0425 29.6532 9.80967 29.5603 9.568 29.5624C9.32633 29.5645 9.09515 29.6614 8.92426 29.8323C8.75337 30.0032 8.65643 30.2344 8.65433 30.476C8.65223 30.7177 8.74513 30.9505 8.91303 31.1244L11.6782 33.8895Z" fill="#003D2B"/>
</svg>
